# xmcd
#
# Track frame offsets: 
#        150
#        14798
#        25461
#        38054
#        48728
#        61945
#        70830
#        84809
#        99629
#        111039
#        124743
#        137754
#        150311
#        160915
#
# Disc length: 2321 seconds
#
# Revision: 0
# Processed by: cddbd v1.5.2PL0 Copyright (c) Steve Scherf et al.
# Submitted via: ExactAudioCopy v0.99pb4
#
DISCID=b5090f0e
DTITLE=Charles Brown - Drifting Blues
DYEAR=1957
DGENRE=Blues
TTITLE0=Drifting Blues
TTITLE1=Seven Kisses Mambo
TTITLE2=Fools Paradise
TTITLE3=Please Don't Drive Me Away
TTITLE4=By The Bend Of The River
TTITLE5=I'm Saving My Love For You
TTITLE6=Black Nite
TTITLE7=Nite After Nite
TTITLE8=Rising Sun
TTITLE9=My Heart Is Mended
TTITLE10=Rolling Like A Pebble In The Sand
TTITLE11=Evening Shadow
TTITLE12=Honeysipper
TTITLE13=Merry Christmas, Baby
EXTD=
EXTT0=
EXTT1=
EXTT2=
EXTT3=
EXTT4=
EXTT5=
EXTT6=
EXTT7=
EXTT8=
EXTT9=
EXTT10=
EXTT11=
EXTT12=
EXTT13=
PLAYORDER=
